<svg version="1.2" xmlns="http://www.w3.org/2000/svg" viewBox="0 0 90 91" width="90" height="91"><style>.a{fill:#7264d6}.b{fill:#fff}</style><path class="a" d="m45 90c-24.9 0-45-20.1-45-45 0-24.9 20.1-45 45-45 24.9 0 45 20.1 45 45 0 24.9-20.1 45-45 45z"/><path fill-rule="evenodd" class="b" d="m63.4 33c1.4 0 2.6 1.2 2.6 2.7v18.6c0 1.5-1.2 2.7-2.6 2.7h-36.8c-1.4 0-2.6-1.2-2.6-2.7v-18.6c0-1.5 1.2-2.7 2.6-2.7zm-38 2.7v18.6c0 0.8 0.5 1.4 1.3 1.4h36.7c0.8 0 1.3-0.6 1.3-1.4v-18.6c0-0.8-0.5-1.4-1.3-1.4h-36.7c-0.8 0-1.3 0.6-1.3 1.4zm34.1 0v0.6c0 1.9 1.4 3.4 3.3 3.4h0.6v10.6h-0.6c-1.9 0-3.3 1.5-3.3 3.4v0.6h-28.9v-0.6c0-1.9-1.4-3.4-3.3-3.4h-0.6v-10.6h0.6c1.9 0 3.3-1.5 3.3-3.4v-0.6zm-31.5 5.2v8.2c2 0.3 3.5 1.9 3.8 3.9h8.5c-2.6-1.6-4.4-4.6-4.4-8 0-3.4 1.8-6.4 4.4-8h-8.5c-0.3 2-1.8 3.6-3.8 3.9zm9.2 4.1c0 4.4 3.5 8 7.8 8 4.4 0 7.9-3.6 7.9-8 0-4.4-3.5-8-7.9-8-4.3 0-7.8 3.6-7.8 8zm17-0.3q0.1 0.2 0.1 0.3c0 3.4-1.8 6.4-4.5 8h8.5c0.3-2 1.9-3.6 3.8-3.9v-8.2c-1.9-0.3-3.5-1.9-3.8-3.9h-8.6c2.6 1.6 4.4 4.5 4.5 7.7zm-5.8-5v1.3h-2.5q0.5 0.6 0.7 1.3h1.8v1.4h-1.8c-0.3 1.2-1.2 2.2-2.7 2.5l3.2 3.2-0.9 0.9-4-4h-0.4v-1.3h1.3c1.3 0 1.9-0.6 2.1-1.3h-3.4v-1.4h3.4c-0.2-0.7-0.8-1.3-2.1-1.3h-1.3v-1.3zm-15.1 5.3c0 0.7-0.6 1.3-1.3 1.3-0.7 0-1.3-0.6-1.3-1.3 0-0.7 0.6-1.3 1.3-1.3 0.7 0 1.3 0.6 1.3 1.3zm26.3 0c0 0.7-0.6 1.3-1.3 1.3-0.7 0-1.3-0.6-1.3-1.3 0-0.7 0.6-1.3 1.3-1.3 0.7 0 1.3 0.6 1.3 1.3z"/></svg>